<?xml version="1.0" encoding="UTF-8"?>
<!DOCTYPE svg PUBLIC "-//W3C//DTD SVG 1.1//EN" "http://www.w3.org/Graphics/SVG/1.1/DTD/svg11.dtd">
<!-- Creator: CorelDRAW -->
<svg xmlns="http://www.w3.org/2000/svg" xml:space="preserve" width="114.484mm" height="8.2042mm" version="1.1" style="shape-rendering:geometricPrecision; text-rendering:geometricPrecision; image-rendering:optimizeQuality; fill-rule:evenodd; clip-rule:evenodd"
viewBox="0 0 8944.65 640.99"
 xmlns:xlink="http://www.w3.org/1999/xlink"
 xmlns:xodm="http://www.corel.com/coreldraw/odm/2003">
 <defs>
  <style type="text/css">
   <![CDATA[
    .fil0 {fill:url(#id0)}
   ]]>
  </style>
  <linearGradient id="id0" gradientUnits="userSpaceOnUse" x1="-0" y1="320.5" x2="8944.65" y2="320.5">
   <stop offset="0" style="stop-opacity:1; stop-color:#F99B35"/>
   <stop offset="0.0117647" style="stop-opacity:1; stop-color:#F99734"/>
   <stop offset="0.0784314" style="stop-opacity:1; stop-color:#F89233"/>
   <stop offset="0.192157" style="stop-opacity:1; stop-color:#F87E29"/>
   <stop offset="1" style="stop-opacity:1; stop-color:#F76A1E"/>
  </linearGradient>
 </defs>
 <g id="Camada_x0020_1">
  <metadata id="CorelCorpID_0Corel-Layer"/>
  <path class="fil0" d="M1020.06 640.22c-0.98,0 -1.73,-0.63 -1.55,-1.3l124.83 -500.96c0.18,-0.72 0.27,-1.48 0.23,-2.2l-110.38 -133.78c-0.05,-0.66 0.7,-1.2 1.59,-1.2l898.2 0c0.48,0 0.92,0.16 1.28,0.45l91.94 77.69c1.02,0.86 1.41,1.96 1.15,3.06l-117.94 476.63c-0.31,1.2 -1.2,2.3 -2.48,3.09l-126.87 76.5c-2.16,1.3 -4.91,2.02 -7.78,2.02l-752.23 0zm7737.18 -1.57l-817.95 1.67c-12.36,0 -21.64,-8.09 -19.23,-16.92l38.74 -131.07c3.09,-10.55 16.13,-18.15 31.24,-18.15l573.62 0c13.7,0 25.73,-6.86 28.81,-16.66l15.82 -53.68c1.34,-4.41 -3.45,-8.82 -9.99,-8.82l-594.87 0c-7.57,0 -13.39,-4.91 -12.01,-10.3l84.08 -283.08c2.41,-7.84 -1.03,-15.93 -8.89,-21.56l-99.36 -65.93c-6.87,-4.9 -2.06,-13.48 7.56,-13.48l960.34 0.2c6.19,0 10.64,3.93 9.24,8.35l-42.62 146.58c-1.04,4.17 -6.52,7.35 -12.7,7.35l-586.48 -7.35c-10.3,0 -17.87,7.12 -15.1,14.47 7.2,18.38 2.04,35.78 -15.45,52.2 -5.49,5.16 -0.35,12.74 8.91,12.74l572.41 7.35c9.97,0 17.52,6.63 15.45,13.73l-111.57 382.35zm-1631.28 -504.77l-144.75 -120.53c-5.06,-3.61 -1.52,-10.1 6.06,-10.1l915.66 0c5.3,0 9.35,3.42 8.34,7.22l-33.75 120.72c-1.02,2.7 -4.3,4.68 -8.35,4.68l-287.45 0c-4.04,0 -7.31,1.98 -8.33,4.69l-147.2 492.51c-1.02,2.7 -4.3,4.69 -8.34,4.69l-256.03 0c-5.29,0 -9.34,-3.43 -8.33,-7.21l146.18 -487.64c1.02,-3.78 -3.02,-7.21 -8.33,-7.21l-159.32 0c-2.27,0 -4.3,-0.54 -6.06,-1.8zm-396.88 506.85l-217.59 0c-6.96,0 -12.27,-4.7 -10.93,-9.87l54.07 -189.25c1.34,-5.17 -3.97,-9.85 -10.95,-9.85l-262.04 0c-5.31,0 -9.63,2.71 -10.95,6.4l-55.44 196.16c-1.3,3.7 -5.63,6.41 -10.94,6.41l-194.75 0c-6.96,0 -12.28,-4.7 -10.95,-9.87l150.67 -528.82c0.99,-2.7 -0.34,-5.67 -2.99,-7.64l-108.19 -80.33c-6.64,-4.94 -1.99,-13.81 7.96,-13.81l860.57 0c6.96,0 12.27,4.68 10.95,9.87l-177.55 624.18c-1.34,3.7 -5.64,6.41 -10.95,6.41zm-397.67 -362.98c100.21,0.23 241.8,0.72 242.16,0.72 9.59,3.7 20.86,-0.48 23.53,-8.13l34.19 -99.79c1.34,-4.45 -2.66,-8.63 -8.62,-8.88 -0.68,0 -158.21,-0.5 -290.27,-0.99 -100.24,-0.48 42.14,-0.73 41.49,-0.98 -9.3,-3.46 -20.92,0.49 -23.24,8.13l-34.21 99.79c-1.64,4.45 2.67,8.88 8.66,9.13 0.66,0 -125.77,0.26 6.3,1zm-2361.95 353.48l147.9 -538.2c0.64,-2.46 0,-4.92 -1.95,-6.9l-72.43 -72.94c-4.9,-4.91 -0.85,-13.06 6.37,-13.06l362.57 0c4.9,0 8.53,4.44 7.24,9.12l-60.82 221.54c-1.28,4.68 2.35,9.13 7.25,9.13l283.67 0c3.86,0 7.09,-2.46 8.06,-6.16l62.43 -227.2c0.98,-3.7 4.19,-6.16 8.06,-6.16l263.55 0c4.9,0 8.52,4.43 7.25,9.13l-171.87 625.17c-0.98,3.7 -4.2,6.17 -8.08,6.17l-262.76 0c-4.91,0 -8.54,-4.45 -7.27,-9.13l61.14 -222.52c1.29,-4.68 -2.35,-9.13 -7.25,-9.13l-282.89 0c-3.86,0 -7.09,2.48 -8.06,6.16l-62.97 227.94c-0.98,3.7 -4.19,6.16 -8.06,6.16l-263.8 0c-4.9,0 -8.54,-4.43 -7.27,-9.11zm1978.07 -620.63l-41.87 142.12c-1.03,4.2 -6.16,7.16 -12,7.16l-493.72 0c-5.81,0 -10.97,2.95 -12,7.14l-18.52 62.43c-1.73,5.43 4.46,10.6 12.01,10.6l483.41 0c7.55,0 13.74,5.19 12,10.62l-42.2 142.37c-1.03,4.17 -6.19,7.14 -12.02,7.14l-489.92 0c-5.84,0 -10.97,2.97 -12,7.16l-18.54 62.67c-1.71,5.42 4.45,10.59 12.02,10.59l480.99 0c7.56,0 13.74,5.2 12.02,10.63l-42.22 142.6c-1.03,4.2 -6.16,7.16 -12,7.16l-746.35 0c-7.55,0 -13.74,-5.2 -12.02,-10.62l157.53 -534.64c0.68,-2.97 -0.35,-5.93 -3.45,-8.14l-100.89 -72.54c-7.55,-5.43 -2.06,-15.06 8.93,-15.06l878.81 0c7.55,0 13.72,5.18 12.01,10.6zm-3987.81 619.54l156.96 -529.33c1.03,-2.71 -0.35,-5.66 -3.11,-7.63l-110.81 -79.14c-6.89,-4.91 -2.09,-13.76 8.25,-13.76l401.52 0c7.22,0 12.72,4.66 11.35,9.84l-65.41 220.18c-1.37,5.17 4.14,9.84 11.36,9.84l132.56 0c2.42,0 4.82,-0.48 6.89,-1.47l229.93 -117.48c2.07,-0.98 3.79,-2.7 4.47,-4.91l32.03 -109.61c1.36,-3.69 5.83,-6.39 11.34,-6.39l261.85 0c7.24,0 12.74,4.66 11.36,9.84l-56.78 191.68c-0.69,2.21 -2.42,3.93 -4.49,4.92l-211.33 107.63c-5.85,2.95 -6.54,8.85 -1.37,12.53l142.85 101.98c2.75,1.97 4.12,4.92 3.08,7.63l-58.5 197.83c-1.37,3.69 -5.86,6.39 -11.36,6.39l-261.5 0c-7.23,0 -12.74,-4.67 -11.36,-9.82l33.72 -113.55c1.03,-2.7 -0.34,-5.65 -3.09,-7.61l-150.41 -107.41c-2.42,-1.71 -5.17,-2.45 -8.27,-2.45l-142.53 0c-5.5,0 -9.99,2.7 -11.35,6.39l-66.78 227.32c-1.39,3.67 -5.85,6.38 -11.36,6.38l-258.32 0c-7.24,0 -12.74,-4.67 -11.36,-9.83zm-1122.16 8.51l-817.95 1.67c-12.36,0 -21.64,-8.09 -19.23,-16.92l38.74 -131.07c3.09,-10.55 16.13,-18.15 31.24,-18.15l573.62 0c13.7,0 25.73,-6.86 28.81,-16.66l15.82 -53.68c1.34,-4.41 -3.45,-8.82 -9.99,-8.82l-594.87 0c-7.57,0 -13.39,-4.91 -12.01,-10.3l84.08 -283.08c2.41,-7.84 -1.03,-15.93 -8.89,-21.56l-99.36 -65.93c-6.87,-4.9 -2.06,-13.48 7.56,-13.48l960.34 0.2c6.19,0 10.64,3.93 9.24,8.35l-42.62 146.58c-1.04,4.17 -6.52,7.35 -12.7,7.35l-586.48 -7.35c-10.3,0 -17.87,7.12 -15.1,14.47 7.2,18.38 2.04,35.78 -15.45,52.2 -5.49,5.16 -0.35,12.74 8.91,12.74l572.41 7.35c9.97,0 17.52,6.63 15.45,13.73l-111.57 382.35zm2908.12 1.57l-602.07 0c-0.4,0 -0.84,-0.13 -1.11,-0.38l-94.29 -79.65c-0.27,-0.25 -0.4,-0.57 -0.3,-0.85l118.11 -477.23c0.05,-0.25 0.23,-0.48 0.48,-0.63l133.41 -80.45c0.27,-0.16 0.57,-0.25 0.93,-0.25l643.84 0c0.88,0 1.59,0.6 1.41,1.23l-33.24 134.32c-0.13,0.51 -0.76,0.86 -1.46,0.86l-444.3 0c-0.71,0 -1.33,0.34 -1.46,0.85l-90.22 364.59c-0.17,0.63 0.53,1.23 1.42,1.23l443.77 0c1.06,0 1.77,0.76 1.37,1.41l-74.97 134.29c-0.22,0.41 -0.75,0.66 -1.32,0.66zm-2137.62 -136.37c0.84,0 1.51,-0.41 1.68,-0.98l90.14 -364.3c0.17,-0.77 -0.62,-1.43 -1.64,-1.43l-239.94 0c-0.84,0 -1.51,0.41 -1.68,0.98l-90.14 364.3c-0.17,0.77 0.62,1.43 1.64,1.43l239.94 0z"/>
 </g>
</svg>


